<mxfile host="app.diagrams.net" modified="2023-06-11T08:20:55.915Z" agent="Mozilla/5.0 (Windows NT 10.0; Win64; x64) AppleWebKit/537.36 (KHTML, like Gecko) Chrome/114.0.0.0 Safari/537.36" version="21.3.8" etag="uIwKbSvKxFmlIc9A9U6z" type="github">
  <diagram name="第 1 页" id="re9REwbQoDFwqVMv6pis">
    <mxGraphModel>
      <root>
        <mxCell id="0" />
        <mxCell id="1" parent="0" />
      </root>
    </mxGraphModel>
  </diagram>
</mxfile>
